<svg xmlns="http://www.w3.org/2000/svg" width="106.271" height="105.578" viewBox="0 0 106.271 105.578"><path fill="#231F20" d="M106.271 53.015c0-8.291-5.909-15.196-13.744-16.749 3.979-6.332 3.226-14.788-2.287-20.3-5.53-5.53-14.022-6.273-20.361-2.252-1.537-7.817-8.421-13.714-16.688-13.714-8.476 0-15.484 6.204-16.78 14.315-6.142-4.032-14.47-3.351-19.87 2.049-5.353 5.354-6.062 13.581-2.146 19.707-8.161 1.338-14.395 8.404-14.395 16.944 0 7.95 5.404 14.62 12.733 16.586-3.961 6.691-3.086 15.453 2.667 21.205 5.913 5.913 15.011 6.687 21.767 2.335 1.836 7.147 8.304 12.438 16.024 12.438 8.016 0 14.7-5.694 16.232-13.258 6.465 4.315 15.284 3.624 20.991-2.083 5.573-5.573 6.352-14.109 2.366-20.528 7.708-1.65 13.491-8.494 13.491-16.695z"/></svg>